<?xml version="1.0" encoding="UTF-8"?>
<svg id="Vrstva_1" data-name="Vrstva 1" xmlns="http://www.w3.org/2000/svg" viewBox="0 0 2034.16 310.52">
  <defs>
    <style>
      .cls-1 {
        fill: #fff;
      }

      .cls-2 {
        fill: none;
      }

      .cls-3 {
        fill: #040305;
      }

      .cls-4 {
        fill: #008691;
      }

      .cls-5 {
        fill: #428e9b;
      }

      .cls-6 {
        fill: #034ea2;
      }

      .cls-7 {
        fill: #878787;
      }

      .cls-8 {
        fill: #faea27;
      }

      .cls-9 {
        fill: #ff5d81;
      }

      .cls-10 {
        fill: #164194;
      }
    </style>
  </defs>
  <g>
    <path class="cls-3" d="M1677.92,136.79c1.82-1.82,3.98-3.15,6.3-4.15,2.32-.83,4.81-1.33,7.13-1.33,2.99,0,5.81.66,8.46,1.99,2.65,1.33,4.98,3.15,6.8,5.47s2.99,5.14,3.15,8.46v1h-37.66c.33-1.49.66-2.99,1.16-4.15,1.33-2.99,2.82-5.47,4.64-7.3h.02ZM1718.56,155.2c1-.83,1.49-1.82,1.49-3.15,0-4.48-1-8.63-2.49-12.28-1.66-3.65-3.65-6.64-6.3-9.29-2.65-2.65-5.64-4.64-9.12-5.97s-6.97-1.99-10.62-1.99c-4.98,0-9.62,1.33-14.1,3.82-4.48,2.65-7.96,6.3-10.78,11.28s-4.15,10.78-4.15,17.75c0,6.3,1.33,11.78,3.98,16.42,2.65,4.81,6.3,8.46,11.11,11.28,4.81,2.65,10.45,4.15,16.92,4.15,4.31,0,8.29-1,12.11-2.82s6.8-3.98,9.12-6.47c1.33-1.16,1.99-2.32,1.99-3.65,0-1.16-.33-2.16-1.16-2.82-.83-.83-1.82-1.16-2.82-1.16s-2.16.33-3.15,1c-1,1.16-2.32,2.16-3.82,3.32-1.49,1-3.32,1.99-5.31,2.65-2.16.66-4.48,1-7.3,1-4.48,0-8.46-1-11.78-2.99s-5.97-4.81-7.8-8.29c-1.66-2.99-2.49-6.47-2.82-10.45h43.63c1.16,0,2.16-.5,3.15-1.33h.02Z"/>
    <path class="cls-3" d="M1783.59,154.87c0-4.64-1-8.63-2.82-12.11s-4.48-6.3-7.63-8.29-6.8-2.99-10.78-2.99-7.8,1-10.95,2.99c-3.15,1.99-5.81,4.81-7.8,8.29s-2.82,7.47-2.82,12.11,1,8.63,2.82,12.11c1.99,3.48,4.48,6.3,7.8,8.29,3.15,1.99,6.97,2.99,10.95,2.99s7.63-1,10.78-2.99c3.32-1.99,5.81-4.81,7.63-8.29,1.82-3.65,2.82-7.63,2.82-12.11h0ZM1793.21,154.87c0,6.3-1.33,11.78-4.15,16.59s-6.47,8.63-11.11,11.45-9.95,4.15-15.76,4.15-11.11-1.33-15.76-4.15-8.46-6.64-11.28-11.45-4.15-10.45-4.15-16.59,1.33-11.78,4.15-16.59,6.47-8.63,11.28-11.45c4.64-2.82,9.95-4.15,15.76-4.15s11.11,1.33,15.76,4.15,8.46,6.64,11.11,11.45c2.82,4.81,4.15,10.29,4.15,16.59h0Z"/>
    <path class="cls-3" d="M1803.99,176.11c-.66-1-1-2.16-.83-3.32,0-1.16.66-2.16,1.99-2.99.83-.5,1.82-.83,2.99-.66,1,0,1.99.66,2.99,1.49,2.16,2.65,4.81,4.81,7.63,6.3,2.82,1.49,6.47,2.32,10.62,2.32,1.82,0,3.65-.33,5.64-1,1.99-.5,3.65-1.49,4.98-2.99,1.33-1.33,1.99-3.32,1.99-5.64,0-2.16-.66-3.98-1.99-5.31-1.33-1.33-3.15-2.32-5.31-3.15s-4.48-1.66-6.97-2.16c-2.65-.66-5.31-1.49-7.8-2.32s-4.81-1.99-6.97-3.48c-1.99-1.33-3.65-3.15-4.98-5.31-1.16-2.16-1.82-4.81-1.82-7.8,0-3.65,1-6.64,2.99-9.29s4.64-4.64,7.8-6.14c3.32-1.49,6.97-2.16,10.95-2.16,2.16,0,4.64.33,6.97.83,2.49.5,4.81,1.33,7.13,2.65,2.32,1.16,4.31,2.99,6.14,5.14.66.83,1.16,1.82,1.16,2.99s-.5,2.32-1.49,3.32c-.83.66-1.82,1-2.99.83-1.16,0-1.99-.5-2.65-1.16-1.82-2.16-3.82-3.65-6.47-4.81-2.49-1-5.31-1.66-8.29-1.66-1.82,0-3.65.33-5.47.83-1.82.66-3.32,1.49-4.64,2.82-1.16,1.33-1.82,3.15-1.82,5.31s.83,3.98,2.16,5.31,3.15,2.49,5.47,3.32,4.81,1.66,7.63,2.49c2.49.66,4.98,1.33,7.3,2.16s4.48,1.99,6.47,3.32,3.48,3.15,4.48,5.14c1.16,2.16,1.66,4.81,1.66,7.96,0,3.65-1,6.8-3.15,9.46-2.16,2.65-4.81,4.64-8.13,6.14-3.32,1.33-6.97,2.16-10.95,2.16-4.31,0-8.79-.83-13.11-2.49-4.48-1.49-8.13-4.31-11.28-8.46h-.03Z"/>
    <path class="cls-3" d="M1891.75,122.52c4.15,0,7.8.5,11.11,1.33s5.81,2.16,7.8,3.65,2.82,3.15,2.82,5.14c0,1.16-.33,2.16-1,3.15-.66,1-1.66,1.49-2.99,1.49-1,0-1.82-.17-2.65-.66-.66-.5-1.33-1-1.99-1.49-.66-.66-1.49-1.16-2.49-1.66s-2.32-.83-4.15-1.33c-1.82-.33-3.65-.5-5.47-.5-4.31,0-8.29,1-11.61,3.15-3.32,2.16-5.97,4.81-7.8,8.46-1.99,3.48-2.82,7.47-2.82,11.94s1,8.46,2.82,11.94,4.31,6.3,7.63,8.46,7.13,3.15,11.45,3.15c2.82,0,4.98-.17,6.64-.66,1.66-.5,2.99-1,4.31-1.66,1.33-.83,2.49-1.66,3.15-2.32.83-.83,1.82-1.16,3.15-1.16s2.49.5,3.15,1.33c.83.83,1.16,1.99,1.16,3.15,0,1.49-1,3.15-2.99,4.64-1.99,1.66-4.64,2.99-8.13,3.98-3.48,1-7.3,1.66-11.45,1.66-6.14,0-11.45-1.49-15.93-4.31s-8.13-6.64-10.62-11.61-3.82-10.45-3.82-16.42,1.33-11.61,3.82-16.42c2.65-4.81,6.14-8.79,10.78-11.61,4.64-3.48,10.12-4.81,16.09-4.81h.03Z"/>
    <path class="cls-4" d="M1574.73,127.66c-5.31-3.32-11.28-5.14-17.58-5.14s-12.28,1.82-17.58,5.14c-1,.66-1.82,1.82-1.82,3.15-.17,1.33.33,2.65,1.16,3.48l1.82,1.82c.83.83,1.99,1.33,2.99,1.33.83,0,1.49-.17,2.16-.66,3.32-2.16,7.3-3.15,11.28-3.15s7.8,1.16,11.28,3.15c1.66,1,3.82.83,5.31-.66l1.82-1.82c1-1,1.33-2.16,1.16-3.48-.17-1.33-.83-2.49-1.99-3.15h-.01Z"/>
    <path class="cls-9" d="M1552.34,175.94c-9.79-2.32-16.59-10.95-16.59-21.07,0-3.98,1.16-7.96,3.15-11.28,1-1.66.83-3.65-.66-4.98l-1.82-1.82c-.83-.83-2.16-1.33-3.32-1.16s-2.32.83-2.99,1.82c-3.32,5.14-5.14,11.28-5.14,17.42,0,15.1,10.78,28.37,25.55,31.52.33,0,.5.17.83.17.83,0,1.82-.33,2.49-.83,1-.83,1.49-1.99,1.49-3.15v-2.49c0-1.99-1.33-3.65-2.99-4.15h0Z"/>
    <path class="cls-4" d="M1611.06,122.69c-17.75,0-32.35,14.43-32.35,32.35v.33c-.17,10.12-7.47,18.91-17.42,20.9-1.33.33-2.32,1.49-2.32,2.82v4.98c0,.83.33,1.66,1,2.16s1.49.83,2.32.66c15.59-2.49,27.04-15.93,27.04-31.85,0-11.94,9.62-21.57,21.57-21.57s21.57,9.62,21.57,21.57-9.62,21.57-21.57,21.57c-2.99,0-5.31,2.32-5.31,5.31s2.32,5.31,5.31,5.31c17.75,0,32.35-14.43,32.35-32.35.17-17.75-14.27-32.18-32.18-32.18h-.01Z"/>
    <polygon class="cls-3" points="1484.49 219.4 1485.98 219.4 1485.98 90.17 1484.49 90.17 1484.49 219.4"/>
    <path class="cls-3" d="M1274.97,176.77c2.82,0,4.98-.66,6.47-1.99s2.32-3.15,2.32-5.64c0-2.32-.83-4.15-2.32-5.47s-3.65-2.16-6.3-2.16h-9.12v24.72h3.32v-9.79h5.64v.33h0ZM1269.16,164.33h6.14c1.66,0,2.82.5,3.82,1.33s1.33,1.99,1.33,3.48-.5,2.82-1.33,3.65c-1,.83-2.32,1.16-3.98,1.16h-5.81v-9.62s-.17,0-.17,0ZM1296.2,167.98c-.33-.17-.83-.17-1.33-.17-1.82,0-3.32.83-4.31,2.49v-2.16h-2.99v18.41h3.15v-13.11c.66-1.82,2.16-2.65,4.15-2.65.5,0,1,0,1.49.17l-.17-2.99h0ZM1298.03,177.27c0,2.82.83,5.14,2.32,6.97,1.49,1.66,3.65,2.65,6.14,2.65,1.66,0,3.15-.33,4.48-1.16s2.32-1.82,2.99-3.32,1-2.99,1-4.81v-.17c0-2.82-.83-5.14-2.32-6.97-1.49-1.66-3.65-2.65-6.14-2.65-1.66,0-2.99.33-4.31,1.16s-2.32,1.82-2.99,3.32c-.66,1.49-1,2.99-1,4.81l-.17.17h0ZM1302.5,172.12c1-1.16,2.16-1.82,3.82-1.82s2.82.66,3.82,1.82c1,1.33,1.49,2.82,1.49,4.98,0,2.32-.5,3.98-1.49,5.31s-2.16,1.82-3.82,1.82-2.82-.66-3.82-1.82c-1-1.16-1.49-2.82-1.49-4.98.17-2.32.66-4.15,1.49-5.31h0ZM1319.92,184.23c1.33,1.66,3.15,2.65,5.31,2.65s3.98-.66,5.14-2.16v1.66c0,1.49-.5,2.82-1.33,3.65s-1.99,1.33-3.65,1.33c-1.99,0-3.65-.83-4.98-2.49l-1.66,1.82c.66,1,1.66,1.82,2.99,2.32s2.65.83,3.98.83c2.32,0,4.31-.66,5.64-1.99,1.49-1.33,2.16-3.32,2.16-5.64v-17.92h-2.82l-.17,1.99c-1.33-1.66-2.99-2.32-5.31-2.32-2.16,0-3.98.83-5.31,2.49s-1.99,3.98-1.99,6.8.66,5.14,1.99,6.97h0ZM1322.41,172.12c.83-1.16,1.99-1.82,3.65-1.82,1.99,0,3.32.83,4.31,2.65v8.46c-1,1.82-2.32,2.65-4.31,2.65-1.49,0-2.65-.66-3.65-1.82-.83-1.16-1.33-2.82-1.33-4.98s.5-3.98,1.33-5.14h0ZM1347.13,167.98c-.33-.17-.83-.17-1.33-.17-1.82,0-3.32.83-4.31,2.49v-2.16h-3.15v18.41h3.15v-13.11c.66-1.82,2.16-2.65,4.15-2.65.5,0,1,0,1.49.17v-2.99h0ZM1364.05,186.39v-.33c-.5-1-.66-2.32-.66-3.98v-8.46c0-1.82-.66-3.32-1.82-4.31-1.16-1-2.82-1.66-4.98-1.66-1.33,0-2.49.17-3.65.83s-1.99,1.16-2.65,1.99c-.66.83-1,1.82-1,2.65h3.15c0-.83.33-1.49,1.16-1.99s1.66-.83,2.82-.83c1.33,0,2.32.33,2.99,1s1,1.49,1,2.65v1.49h-2.99c-2.65,0-4.64.5-6.14,1.66-1.49,1-2.16,2.49-2.16,4.48,0,1.66.5,2.82,1.82,3.98,1.16,1,2.65,1.49,4.48,1.49,1.99,0,3.82-.83,5.31-2.32.17,1,.33,1.66.5,1.99l2.82-.33h0ZM1352.94,183.24c-.66-.5-1-1.33-1-2.32,0-2.32,1.99-3.32,5.81-3.32h2.49v3.82c-.33.83-1,1.49-1.99,1.99-.83.5-1.82.83-2.82.83-1-.17-1.82-.5-2.49-1h0ZM1368.36,167.98v18.41h3.15v-13.44c.83-1.82,2.16-2.65,4.31-2.65,2.65,0,3.98,1.33,3.98,3.98v12.11h3.15v-12.28c.17-1.16.5-2.16,1.33-2.82s1.66-1,2.99-1c1.49,0,2.49.33,2.99,1,.66.66.83,1.66.83,2.99v12.11h3.15v-12.28c0-4.31-2.16-6.47-6.14-6.47-1.33,0-2.49.33-3.48.83s-1.82,1.33-2.32,2.16c-1-1.99-2.65-2.99-5.31-2.99-2.32,0-4.15.83-5.47,2.32l-.17-1.99h-2.99,0ZM1398.89,167.98v18.41h3.15v-13.44c.83-1.82,2.16-2.65,4.31-2.65,2.65,0,3.98,1.33,3.98,3.98v12.11h3.15v-12.28c.17-1.16.5-2.16,1.33-2.82s1.82-1,2.99-1c1.49,0,2.49.33,2.99,1,.66.66.83,1.66.83,2.99v12.11h3.15v-12.28c0-4.31-2.16-6.47-6.14-6.47-1.33,0-2.49.33-3.48.83s-1.82,1.33-2.32,2.16c-1-1.99-2.65-2.99-5.31-2.99-2.32,0-4.15.83-5.47,2.32l-.17-1.99h-2.99,0ZM1444.18,183.24l-1.99-1.49c-.5.83-1.33,1.33-1.99,1.82-.83.5-1.66.66-2.82.66-1.49,0-2.82-.5-3.82-1.66s-1.49-2.65-1.66-4.48h12.44v-1.33c0-2.99-.66-5.14-1.99-6.8s-3.15-2.32-5.64-2.32c-1.49,0-2.82.33-4.15,1.16s-2.16,1.99-2.99,3.32c-.66,1.49-1,3.15-1,4.98v.5c0,2.82.83,4.98,2.32,6.64s3.65,2.49,6.14,2.49c3.15,0,5.47-1.16,7.13-3.48h.02ZM1439.86,171.63c.83.83,1.16,2.16,1.33,3.65v.17h-9.29c.17-1.66.66-2.99,1.66-3.82.83-1,1.99-1.33,3.15-1.33,1.33,0,2.32.33,3.15,1.33h0Z"/>
    <path class="cls-3" d="M1233,120.86h-3.32v19.24l-12.44-19.24h-3.32v24.72h3.32v-19.08l12.44,19.08h3.32v-24.72h0ZM1252.9,145.75v-.33c-.5-1-.66-2.32-.66-3.98v-8.46c0-1.82-.66-3.32-1.82-4.31s-2.82-1.66-4.98-1.66c-1.33,0-2.49.17-3.65.83s-1.99,1.16-2.65,1.99-1,1.82-1,2.65h3.15c0-.83.33-1.49,1.16-1.99s1.66-.83,2.82-.83c1.33,0,2.32.33,2.99,1,.66.66,1,1.49,1,2.65v1.49h-2.99c-2.65,0-4.64.5-6.14,1.66-1.49,1-2.16,2.49-2.16,4.48,0,1.66.66,2.82,1.82,3.98,1.16,1,2.65,1.49,4.48,1.49,1.99,0,3.82-.83,5.31-2.32.17,1,.33,1.66.5,1.99l2.82-.33h0ZM1241.95,142.43c-.66-.5-1-1.33-1-2.32,0-2.32,1.99-3.32,5.81-3.32h2.49v3.82c-.33.83-1,1.49-1.99,1.99-.83.5-1.82.83-2.82.83-1-.17-1.82-.33-2.49-1h0ZM1258.38,122.85v4.48h-3.32v2.49h3.32v11.45c0,1.49.33,2.82,1,3.65s1.82,1.33,3.15,1.33c.83,0,1.66-.17,2.49-.33v-2.49c-.66.17-1.16.17-1.49.17-.66,0-1.33-.17-1.49-.5-.33-.33-.5-1-.5-1.66v-11.45h3.48v-2.49h-3.48v-4.48l-3.15-.17h-.01ZM1272.15,127.33h-3.15v18.41h3.15v-18.41h0ZM1269.16,123.68c.33.33.83.5,1.33.5.66,0,1-.17,1.33-.5s.5-.83.5-1.33-.17-1-.5-1.33-.83-.5-1.33-.5c-.66,0-1,.17-1.33.5s-.5.83-.5,1.33.17,1,.5,1.33h0ZM1276.29,136.62c0,2.82.83,5.14,2.32,6.97,1.49,1.66,3.65,2.65,6.14,2.65,1.66,0,3.15-.33,4.48-1.16s2.32-1.82,2.99-3.32,1-2.99,1-4.81v-.17c0-2.82-.83-5.14-2.32-6.97-1.49-1.66-3.65-2.65-6.14-2.65-1.66,0-2.99.33-4.31,1.16s-2.32,1.82-2.99,3.32c-.66,1.49-1,2.99-1,4.81l-.17.17h0ZM1280.94,131.48c1-1.16,2.16-1.82,3.82-1.82s2.82.66,3.82,1.82c1,1.33,1.49,2.82,1.49,4.98,0,2.32-.5,3.98-1.49,5.31-1,1.33-2.16,1.82-3.82,1.82s-2.82-.66-3.82-1.82c-1-1.16-1.49-2.82-1.49-4.98,0-2.32.5-4.15,1.49-5.31h0ZM1297.03,127.33v18.41h3.15v-13.11c.5-.83,1-1.66,1.82-2.16s1.66-.83,2.65-.83c1.33,0,2.16.33,2.82,1,.66.66.83,1.66.83,2.99v12.28h3.15v-12.11c0-4.31-1.99-6.64-5.97-6.64-2.32,0-4.15.83-5.47,2.65l-.17-2.32h-2.82v-.17h0ZM1330.87,145.75v-.33c-.5-1-.66-2.32-.66-3.98v-8.46c0-1.82-.66-3.32-1.82-4.31-1.16-1-2.82-1.66-4.98-1.66-1.33,0-2.49.17-3.65.83-1.16.5-1.99,1.16-2.65,1.99-.66.83-1,1.82-1,2.65h3.15c0-.83.33-1.49,1.16-1.99s1.66-.83,2.82-.83c1.33,0,2.32.33,2.99,1s1,1.49,1,2.65v1.49h-2.99c-2.65,0-4.64.5-6.14,1.66-1.49,1-2.16,2.49-2.16,4.48,0,1.66.66,2.82,1.82,3.98,1.16,1,2.65,1.49,4.48,1.49,1.99,0,3.82-.83,5.31-2.32.17,1,.33,1.66.5,1.99l2.82-.33h0ZM1319.92,142.43c-.66-.5-1-1.33-1-2.32,0-2.32,1.99-3.32,5.81-3.32h2.49v3.82c-.33.83-1,1.49-1.99,1.99-.83.5-1.82.83-2.82.83-1-.17-1.82-.33-2.49-1h0ZM1338.67,119.54h-3.15v26.21h3.15v-26.21h0ZM1367.7,137.95c-.33,1.99-1,3.48-1.99,4.31-1,.83-2.32,1.16-4.15,1.16-1.99,0-3.65-.83-4.64-2.32-1.16-1.66-1.66-3.82-1.66-6.47v-2.49c0-2.82.66-4.98,1.82-6.64,1.16-1.49,2.82-2.32,4.98-2.32,1.66,0,2.99.5,3.98,1.33,1,.83,1.49,2.32,1.82,4.31h3.32c-.33-2.65-1.16-4.64-2.82-6.14s-3.65-2.16-6.3-2.16c-1.99,0-3.82.5-5.31,1.33-1.49,1-2.65,2.32-3.48,3.98-.83,1.82-1.16,3.82-1.16,6.14v2.32c0,3.48.83,6.3,2.65,8.46s4.15,3.15,6.97,3.15c2.65,0,4.81-.66,6.47-2.16s2.65-3.48,2.99-6.14h-3.48v.35ZM1388.27,129.49v-2.16h-13.93v2.65h9.95l-10.12,13.44v2.32h14.6v-2.65h-10.78l10.29-13.6h-.01ZM1406.68,142.6l-1.99-1.49c-.5.83-1.33,1.33-1.99,1.82-.83.5-1.66.66-2.82.66-1.49,0-2.82-.5-3.82-1.66s-1.49-2.65-1.66-4.48h12.44v-1.33c0-2.99-.66-5.14-1.99-6.8s-3.15-2.32-5.64-2.32c-1.49,0-2.82.33-4.15,1.16s-2.16,1.99-2.99,3.32c-.83,1.33-1,3.15-1,4.98v.5c0,2.82.83,4.98,2.32,6.64s3.65,2.49,6.14,2.49c3.15,0,5.47-1.16,7.13-3.48h.02ZM1402.37,130.82c.83.83,1.16,2.16,1.33,3.65v.17h-9.29c.17-1.66.66-2.99,1.66-3.82.83-1,1.99-1.33,3.15-1.33,1.33,0,2.49.5,3.15,1.33h0ZM1414.15,141.77c-.83-1.16-1.33-2.82-1.33-4.98v-.66c0-2.16.5-3.82,1.33-4.98s2.16-1.66,3.65-1.66c1.16,0,2.16.33,2.99,1.16s1.33,1.82,1.33,2.99h2.99c-.17-1.99-.83-3.65-2.16-4.81s-3.15-1.82-5.14-1.82c-1.66,0-3.15.33-4.31,1.16-1.16.83-2.16,1.82-2.82,3.32-.66,1.33-1,2.99-1,4.81v.5c0,2.99.66,5.14,2.16,6.8,1.49,1.66,3.48,2.49,5.97,2.49,1.33,0,2.49-.33,3.48-.83,1.16-.5,1.99-1.33,2.65-2.32.66-1,1-1.99,1.16-2.99h-2.99c-.17,1-.5,1.82-1.33,2.49s-1.82,1-2.99,1c-1.49,0-2.82-.5-3.65-1.66h.01ZM1431.9,119.54h-3.15v26.21h3.15v-13.11c.5-.83,1-1.66,1.82-2.16s1.66-.83,2.65-.83c1.33,0,2.16.33,2.82,1,.66.66.83,1.66.83,2.99v12.28h3.15v-12.11c0-4.31-1.99-6.64-5.97-6.64-2.16,0-3.98.83-5.47,2.65v-10.29h.17Z"/>
    <rect class="cls-2" x="1093.24" y="-.06" width="941.5" height="310.93"/>
  </g>
  <g>
    <rect class="cls-1" x="61.85" y="85.12" width="203.74" height="138.38"/>
    <rect class="cls-10" x="65.68" y="88.95" width="195.89" height="130.54"/>
    <polyline class="cls-8" points="159.45 117.36 163.63 114.4 167.81 117.36 166.24 112.48 170.43 109.52 165.2 109.52 163.63 104.46 162.06 109.52 156.83 109.52 161.19 112.48 159.45 117.36"/>
    <polyline class="cls-8" points="138.18 123.11 142.37 120.15 146.37 123.11 144.81 118.23 148.99 115.27 143.76 115.27 142.37 110.21 140.62 115.27 135.57 115.27 139.75 118.23 138.18 123.11"/>
    <polyline class="cls-8" points="126.68 125.9 125.11 130.95 119.88 130.95 124.07 133.92 122.5 138.8 126.68 135.83 130.69 138.8 129.12 133.92 133.3 130.95 128.25 130.95 126.68 125.9"/>
    <polyline class="cls-8" points="120.93 157.1 124.94 160.23 123.37 155.35 127.73 152.22 122.5 152.22 120.93 147.34 119.36 152.22 114.13 152.22 118.31 155.35 116.75 160.23 120.93 157.1"/>
    <polyline class="cls-8" points="128.25 173.65 126.68 168.77 125.11 173.65 119.88 173.65 124.07 176.62 122.5 181.5 126.68 178.53 130.69 181.5 129.12 176.62 133.3 173.65 128.25 173.65"/>
    <polyline class="cls-8" points="143.93 189.34 142.37 184.46 140.8 189.34 135.57 189.34 139.75 192.3 138.18 197.18 142.37 194.22 146.37 197.18 144.81 192.3 148.99 189.34 143.93 189.34"/>
    <polyline class="cls-8" points="165.2 195.09 163.63 190.04 162.06 195.09 156.83 195.09 161.19 198.05 159.45 202.93 163.63 199.97 167.81 202.93 166.24 198.05 170.43 195.09 165.2 195.09"/>
    <polyline class="cls-8" points="186.63 189.34 185.07 184.46 183.5 189.34 178.27 189.34 182.45 192.3 180.88 197.18 185.07 194.22 189.25 197.18 187.68 192.3 191.86 189.34 186.63 189.34"/>
    <polyline class="cls-8" points="202.32 173.65 200.75 168.77 199.18 173.65 193.95 173.65 198.14 176.62 196.57 181.5 200.75 178.53 204.93 181.5 203.19 176.62 207.55 173.65 202.32 173.65"/>
    <polyline class="cls-8" points="213.12 152.22 207.9 152.22 206.33 147.34 204.76 152.22 199.71 152.22 203.89 155.18 202.32 160.06 206.33 157.1 210.51 160.06 208.94 155.18 213.12 152.22"/>
    <polyline class="cls-8" points="196.57 138.8 200.75 135.66 204.93 138.8 203.19 133.92 207.55 130.78 202.32 130.78 200.75 125.9 199.18 130.78 193.95 130.78 198.14 133.92 196.57 138.8"/>
    <polyline class="cls-8" points="185.07 110.21 183.5 115.27 178.27 115.27 182.45 118.23 180.88 123.11 185.07 120.15 189.25 123.11 187.68 118.23 191.86 115.27 186.63 115.27 185.07 110.21"/>
    <path class="cls-6" d="M304.62,140.19c-2.09,0-4.18-.35-6.27-1.05-1.74-.7-3.49-1.74-4.71-3.14-1.39-1.39-2.27-3.14-2.96-5.05-.7-2.27-1.05-4.53-1.05-6.97s.35-4.71,1.22-6.97c.7-1.92,1.92-3.66,3.31-5.05,1.39-1.39,2.96-2.44,4.71-3.14,1.92-.7,4.01-1.05,5.93-1.05,1.22,0,2.27,0,3.49.35.87.17,1.92.35,2.79.7.7.17,1.39.52,1.92.7l1.05.52-1.74,4.53c-1.05-.52-1.92-1.05-3.14-1.22-1.39-.35-2.79-.7-4.36-.7-1.22,0-2.61.17-3.83.7s-2.27,1.22-2.96,2.09c-.87,1.05-1.57,2.27-1.92,3.49-.52,1.57-.7,3.31-.7,4.88s.17,3.14.52,4.53c.35,1.22.87,2.44,1.74,3.49s1.74,1.74,2.96,2.27c1.39.52,2.79.87,4.36.87s3.31-.17,4.88-.7c1.05-.35,1.92-.7,2.96-1.05l1.74,4.71c-.52.35-.87.52-1.39.7-1.57.7-3.31,1.05-5.05,1.22-1.22.35-2.27.35-3.49.35Z"/>
    <path class="cls-6" d="M339.83,127.82c0,1.74-.17,3.49-.87,5.05-.52,1.39-1.22,2.79-2.27,3.83s-2.09,1.92-3.49,2.44c-1.39.7-2.96.87-4.53.87s-3.14-.35-4.53-.87-2.44-1.39-3.49-2.44c-1.05-1.22-1.74-2.44-2.27-3.83-1.05-3.31-1.05-6.8,0-10.11.52-1.39,1.39-2.79,2.27-3.83,1.05-1.05,2.09-1.74,3.49-2.44,1.39-.52,2.96-.87,4.53-.87s3.14.35,4.53.87,2.44,1.39,3.49,2.44,1.74,2.44,2.27,3.83c.52,1.57.87,3.31.87,5.05ZM334.25,127.82c.17-1.92-.35-3.83-1.57-5.58-1.92-2.27-5.23-2.79-7.49-.87-.35.17-.7.52-.87.87-1.05,1.57-1.57,3.66-1.57,5.58-.17,1.92.35,4.01,1.57,5.58,1.74,2.27,5.05,2.79,7.32,1.05.35-.35.7-.7,1.05-1.05,1.22-1.57,1.74-3.66,1.57-5.58Z"/>
    <path class="cls-6" d="M342.97,124.33h12.03v5.05h-12.03v-5.05Z"/>
    <path class="cls-6" d="M369.11,104.81c1.05,0,2.27.17,3.31.35.7.17,1.39.35,2.09.7l-1.05,4.53c-.52-.17-1.22-.52-1.74-.52-.7-.17-1.39-.17-2.09-.17s-1.57.17-2.27.35c-.52.17-1.05.52-1.39,1.05s-.7,1.05-.7,1.57c-.17.7-.17,1.39-.17,2.09v1.57h8.54v4.53h-8.54v19h-5.4v-25.45c-.17-2.61.7-5.05,2.44-7.15,1.74-1.74,4.36-2.61,6.97-2.44Z"/>
    <path class="cls-6" d="M396.82,138.8c-1.05.17-2.44.52-4.01.87-1.74.35-3.66.52-5.58.35-1.57,0-3.31-.17-4.71-.87-1.22-.52-2.27-1.22-3.14-2.27-.87-1.05-1.39-2.27-1.57-3.49-.35-1.39-.52-2.96-.52-4.36v-13.07h5.4v12.37c-.17,1.92.17,3.66,1.05,5.4.87,1.22,2.44,1.74,3.83,1.57h2.09c.52,0,1.05-.17,1.57-.17v-19h5.4v22.66h.17Z"/>
    <path class="cls-6" d="M403.79,116.84c1.39-.35,2.79-.7,4.18-.87,1.92-.35,3.66-.35,5.58-.35,1.57,0,3.31.17,4.88.87,1.22.52,2.27,1.22,3.14,2.27.87,1.05,1.39,2.27,1.57,3.49.35,1.39.52,2.96.52,4.36v13.25h-5.4v-12.37c0-1.05,0-2.09-.17-3.31-.17-.7-.35-1.57-.87-2.09-.35-.52-.87-1.05-1.57-1.22-.7-.35-1.57-.35-2.44-.35-.7,0-1.39,0-2.09.17l-1.57.17v19h-5.4l-.35-23.01Z"/>
    <path class="cls-6" d="M449.8,138.8c-1.39.35-2.61.7-4.01.87-1.74.35-3.49.35-5.05.35-1.74,0-3.31-.17-5.05-.87-1.39-.52-2.79-1.39-3.83-2.44-1.05-1.05-1.74-2.44-2.27-3.83-.52-1.57-.87-3.31-.87-5.05s.17-3.49.7-5.05c.35-1.39,1.05-2.79,2.09-3.83.87-1.05,1.92-1.92,3.14-2.44,1.39-.7,2.96-.87,4.53-.87,1.05,0,2.09.17,2.96.35.7.17,1.57.52,2.27.87v-11.33l5.4-.87v34.16ZM434.29,127.82c-.17,2.09.52,4.01,1.74,5.58,1.22,1.39,2.96,2.09,4.71,2.09.7,0,1.57,0,2.27-.17.52,0,1.05-.17,1.57-.17v-13.42c-.52-.35-1.22-.7-1.92-.87-.87-.35-1.74-.35-2.44-.35-1.74-.17-3.31.7-4.36,2.09-1.22,1.39-1.74,3.31-1.57,5.23Z"/>
    <path class="cls-6" d="M455.38,127.99c0-1.92.35-3.66.87-5.4.52-1.39,1.39-2.79,2.44-3.83,1.05-1.05,2.09-1.74,3.49-2.27,1.22-.52,2.61-.7,4.01-.87,2.79-.17,5.58.87,7.49,2.96,1.92,2.61,2.96,5.75,2.79,9.06v2.09h-15.51c0,1.74.7,3.31,1.92,4.36,1.57,1.22,3.31,1.74,5.23,1.57,1.22,0,2.44-.17,3.66-.35.87-.17,1.74-.35,2.61-.7l.7,4.36c-.35.17-.87.35-1.22.52-.52.17-1.22.35-1.74.35-.7.17-1.39.17-2.09.35-.87,0-1.57.17-2.44.17-1.92,0-3.66-.35-5.4-.87-1.39-.52-2.79-1.39-3.83-2.61-1.05-1.05-1.74-2.44-2.27-3.83-.35-1.74-.7-3.49-.7-5.05ZM471.06,125.55c0-.7,0-1.39-.17-2.09-.17-.7-.52-1.22-.87-1.74s-.87-.87-1.57-1.22-1.39-.52-2.09-.35c-.7,0-1.57.17-2.27.52-.7.35-1.22.7-1.57,1.22-.35.52-.7,1.05-1.05,1.74-.17.7-.35,1.39-.52,2.09l10.11-.17Z"/>
    <path class="cls-6" d="M502.26,138.8c-1.39.35-2.61.7-4.01.87-1.74.35-3.49.35-5.23.35s-3.31-.17-5.05-.87c-1.39-.52-2.79-1.39-3.83-2.44-1.05-1.05-1.74-2.44-2.27-3.83-.52-1.57-.87-3.31-.87-5.05s.17-3.49.7-5.05c.35-1.39,1.05-2.79,2.09-3.83.87-1.05,2.09-1.92,3.31-2.44,1.39-.7,2.96-.87,4.36-.87,1.05,0,2.09.17,2.96.35.7.17,1.57.52,2.27.87v-11.33l5.4-.87.17,34.16ZM486.57,127.82c-.17,2.09.52,4.01,1.74,5.58,1.22,1.39,2.96,2.09,4.71,2.09.7,0,1.57,0,2.27-.17.52,0,1.05-.17,1.57-.17v-13.42c-.52-.35-1.22-.7-1.92-.87-.87-.35-1.74-.35-2.44-.35-1.74-.17-3.31.7-4.36,2.09-1.05,1.39-1.57,3.31-1.57,5.23h0Z"/>
    <path class="cls-6" d="M540.78,127.82c0,1.74-.17,3.49-.87,5.05-.52,1.39-1.39,2.79-2.44,3.83s-2.27,1.92-3.66,2.44c-1.57.52-3.31.87-5.05.87s-3.49-.17-5.23-.35c-1.39-.17-2.79-.52-4.01-.87v-33.11l5.4-.87v12.2c.7-.35,1.57-.7,2.27-.87,1.05-.35,2.09-.35,2.96-.35,1.57,0,2.96.35,4.36.87,1.22.52,2.44,1.39,3.31,2.44.87,1.22,1.57,2.44,1.92,3.83.87,1.57,1.05,3.31,1.05,4.88ZM535.2,127.82c.17-1.92-.35-3.83-1.39-5.4-1.05-1.39-2.61-2.09-4.36-2.09-.87,0-1.74.17-2.61.35-.7.17-1.39.52-1.92.87v13.59c.52.17,1.05.17,1.57.17.7,0,1.57.17,2.27.17,1.74.17,3.49-.7,4.71-2.09,1.22-1.57,1.92-3.66,1.74-5.58Z"/>
    <path class="cls-6" d="M565,116.14c-2.27,8.37-5.05,16.38-8.37,24.23-.52,1.22-1.22,2.44-1.92,3.49-.52.87-1.22,1.57-2.09,2.27-.7.7-1.74,1.05-2.61,1.39-1.05.35-2.27.52-3.31.35-.87,0-1.74-.17-2.44-.35-.7-.17-1.22-.35-1.92-.52l1.05-4.36c1.05.35,2.09.7,3.14.7,1.22,0,2.44-.35,3.31-1.05.87-.87,1.57-1.92,2.09-3.14-1.74-3.31-3.31-6.97-4.88-10.81-1.57-4.01-2.96-8.19-4.18-12.37h5.75c.35,1.22.7,2.61,1.05,4.01s.87,2.96,1.39,4.53,1.05,2.96,1.57,4.53,1.22,2.96,1.74,4.18c.87-2.61,1.92-5.58,2.61-8.54s1.57-5.93,2.27-8.71l5.75.17Z"/>
    <path class="cls-6" d="M290.33,163.72l5.4-.87v7.15h8.37v4.53h-8.37v9.59c-.17,1.39.17,2.79.87,4.01.7.87,1.92,1.39,3.14,1.22.87,0,1.74-.17,2.61-.35.52-.17,1.22-.35,1.74-.52l.87,4.36c-.87.35-1.57.52-2.44.87-1.22.35-2.44.52-3.66.35-1.39,0-2.79-.17-4.18-.7-1.05-.35-1.92-1.05-2.61-1.92s-1.22-1.92-1.39-3.14c-.35-1.39-.35-2.79-.35-4.18v-20.39h0Z"/>
    <path class="cls-6" d="M309.33,193.52v-33.99l5.4-.87v11.68l2.09-.52c.7-.17,1.57-.17,2.44-.17,1.57,0,3.14.17,4.71.87,1.22.52,2.27,1.22,2.96,2.27s1.39,2.09,1.57,3.31c.35,1.39.52,2.96.52,4.36v13.25h-5.4v-12.37c0-1.05,0-2.09-.17-3.14-.17-.7-.35-1.57-.87-2.09-.35-.52-.87-1.05-1.57-1.22-.7-.35-1.57-.35-2.27-.35s-1.39,0-2.27.17c-.7.17-1.39.35-1.57.35v18.65h-5.58v-.17Z"/>
    <path class="cls-6" d="M334.08,181.84c0-1.92.35-3.66.87-5.4.52-1.39,1.39-2.79,2.44-3.83,1.05-1.05,2.09-1.74,3.49-2.27,1.22-.52,2.61-.7,4.01-.87,2.79-.17,5.58.87,7.49,2.96,1.92,2.61,2.96,5.75,2.79,9.06v2.09h-15.51c0,1.74.7,3.31,1.92,4.36,1.57,1.22,3.31,1.74,5.23,1.57,1.22,0,2.44-.17,3.66-.35.87-.17,1.74-.35,2.61-.7l.7,4.36c-.35.17-.87.35-1.22.52-.52.17-1.05.35-1.74.52s-1.39.17-2.09.35c-.87,0-1.57.17-2.44.17-1.92,0-3.66-.35-5.4-.87-1.39-.52-2.79-1.39-3.83-2.61-1.05-1.05-1.74-2.44-2.27-3.83-.35-1.92-.52-3.66-.7-5.23ZM349.76,179.4c0-.7-.17-1.39-.35-2.09-.17-.7-.52-1.22-.87-1.74s-.87-.87-1.57-1.22c-1.39-.52-2.96-.52-4.36,0-.7.35-1.22.7-1.57,1.22s-.7,1.05-1.05,1.74c-.17.7-.35,1.39-.52,2.09h10.28Z"/>
    <path class="cls-6" d="M371.9,193.52v-31.2h20.04v4.88h-14.29v7.67h12.72v4.71h-12.72v9.06h15.34v4.88h-21.09Z"/>
    <path class="cls-6" d="M416.34,192.82c-1.05.17-2.44.52-4.01.87-1.74.35-3.66.35-5.58.35-1.57,0-3.31-.17-4.71-.87-1.22-.52-2.27-1.22-3.14-2.27s-1.39-2.27-1.57-3.49c-.35-1.39-.52-2.96-.52-4.36v-13.07h5.4v12.37c-.17,1.92.17,3.66,1.05,5.4.87,1.22,2.44,1.74,3.83,1.57h2.09c.52,0,1.05-.17,1.57-.17v-19.17h5.4l.17,22.83Z"/>
    <path class="cls-6" d="M436.56,174.87c-.7-.17-1.22-.35-1.92-.52-.87-.17-1.74-.35-2.79-.35-.7,0-1.22,0-1.92.17-.52,0-.87.17-1.39.35v18.82h-5.4v-22.31c1.22-.52,2.61-.87,3.83-1.05,1.74-.35,3.49-.52,5.23-.52h1.22c.52,0,1.05.17,1.39.17s.87.17,1.39.35.87.17,1.05.35l-.7,4.53Z"/>
    <path class="cls-6" d="M462.52,181.67c0,1.74-.17,3.49-.87,5.05-.52,1.39-1.22,2.79-2.27,3.83-1.05,1.05-2.09,1.92-3.49,2.61-1.39.52-2.96.87-4.53.87s-3.14-.35-4.53-.87-2.44-1.39-3.49-2.61c-1.05-1.05-1.74-2.44-2.27-3.83-1.05-3.31-1.05-6.8,0-10.11.52-1.39,1.22-2.79,2.27-3.83,1.05-1.05,2.09-1.92,3.49-2.44,1.39-.52,2.96-.87,4.53-.87s3.14.35,4.53.87,2.44,1.39,3.49,2.44c1.05,1.05,1.74,2.44,2.27,3.83.7,1.57.87,3.31.87,5.05ZM456.95,181.67c.17-1.92-.35-3.83-1.57-5.58-1.74-2.27-5.23-2.79-7.49-.87-.35.35-.7.52-.87.87-1.05,1.57-1.57,3.66-1.57,5.58-.17,1.92.35,4.01,1.57,5.58,1.74,2.27,5.05,2.79,7.32,1.05.35-.35.7-.7,1.05-1.05,1.22-1.57,1.74-3.66,1.57-5.58h0Z"/>
    <path class="cls-6" d="M489.36,181.67c0,1.74-.17,3.31-.7,4.88-.35,1.39-1.05,2.79-1.92,3.83-.87,1.05-1.92,1.92-3.31,2.44-2.44,1.05-5.05,1.22-7.49.52-.87-.17-1.57-.52-2.27-.87v9.06h-5.4v-30.85c1.39-.35,2.79-.7,4.01-.87,1.74-.35,3.49-.35,5.05-.35,1.74,0,3.31.35,5.05.87,1.39.52,2.61,1.39,3.66,2.44,1.05,1.05,1.92,2.44,2.44,3.83.52,1.74.87,3.31.87,5.05ZM483.79,181.84c.17-2.09-.52-4.01-1.57-5.58-1.39-1.39-3.31-2.27-5.23-2.09h-1.57c-.52,0-1.05.17-1.57.35v13.42c.52.35,1.22.7,1.92.87.87.35,1.74.35,2.61.35,1.74.17,3.31-.7,4.36-2.09.7-1.39,1.22-3.31,1.05-5.23Z"/>
    <path class="cls-6" d="M493.72,181.84c0-1.92.35-3.66.87-5.4.52-1.39,1.39-2.79,2.44-3.83,1.05-1.05,2.09-1.74,3.49-2.27,1.22-.52,2.61-.7,4.01-.87,2.79-.17,5.58.87,7.49,2.96,1.92,2.61,2.96,5.75,2.61,9.06v2.09h-15.34c0,1.74.7,3.31,1.92,4.36,1.39,1.05,3.31,1.74,5.05,1.57,1.22,0,2.44-.17,3.66-.35.87-.17,1.74-.35,2.61-.7l.7,4.36c-.35.17-.87.35-1.22.52-.52.17-1.05.35-1.74.52s-1.39.17-2.09.35c-.87,0-1.57.17-2.44.17-1.92,0-3.66-.35-5.4-.87-1.39-.52-2.79-1.39-3.83-2.61-1.05-1.05-1.74-2.44-2.27-3.83-.35-1.92-.7-3.66-.52-5.23ZM509.41,179.4c0-.7-.17-1.39-.35-2.09s-.52-1.22-.87-1.74c-.35-.52-.87-.87-1.57-1.22-1.39-.52-2.96-.52-4.36,0-.7.35-1.22.7-1.57,1.22s-.7,1.05-1.05,1.74c-.17.7-.35,1.39-.35,2.09h10.11Z"/>
    <path class="cls-6" d="M528.4,169.3c1.57,0,3.14.17,4.53.7,1.05.35,2.09,1.05,2.96,1.92.7.87,1.22,1.92,1.57,2.96.35,1.22.52,2.44.52,3.83v14.29c-.87.17-2.09.35-3.83.7-1.92.17-3.83.35-5.75.35-1.22,0-2.61-.17-3.83-.35-1.05-.17-2.09-.7-2.96-1.22-.87-.7-1.39-1.39-1.92-2.27-.52-1.05-.7-2.27-.7-3.49s.17-2.44.87-3.49c.52-.87,1.22-1.74,2.09-2.27s2.09-1.05,3.14-1.22c1.22-.17,2.44-.35,3.66-.35.7,0,1.22,0,1.92.17.7,0,1.39.17,2.09.35v-.87c0-.52,0-1.22-.17-1.74s-.35-1.05-.87-1.57c-.35-.52-.87-.87-1.57-1.05-.7-.35-1.57-.35-2.27-.35-1.22,0-2.27,0-3.49.35-.87.17-1.74.35-2.61.7l-.7-4.36c1.05-.35,1.92-.52,2.96-.7,1.57-.87,2.96-.87,4.36-1.05ZM528.93,189.69c1.22,0,2.61,0,3.83-.35v-6.1c-.35-.17-.87-.17-1.39-.35-.7-.17-1.22-.17-1.92-.17-.52,0-1.22,0-1.74.17-.52,0-1.22.17-1.74.52-.52.17-.87.52-1.22,1.05s-.52,1.05-.35,1.57c-.17,1.05.35,2.09,1.22,2.61,1.05.87,2.09,1.05,3.31,1.05Z"/>
    <path class="cls-6" d="M544.61,170.69c1.39-.35,2.79-.7,4.01-.87,1.92-.35,3.66-.35,5.58-.35,1.57,0,3.31.17,4.88.87,1.22.52,2.27,1.22,2.96,2.27.87,1.05,1.39,2.27,1.57,3.49.35,1.39.52,2.96.52,4.36v13.25h-5.4v-12.37c0-1.05,0-2.09-.17-3.14-.17-.7-.35-1.57-.7-2.09-.35-.52-.87-1.05-1.57-1.22-.7-.35-1.57-.35-2.44-.35-.7,0-1.39,0-2.09.17l-1.74.17v19h-5.23v-23.18h-.17Z"/>
    <path class="cls-6" d="M593.58,194.04c-1.92,0-3.66-.35-5.4-.87-1.39-.52-2.79-1.39-3.83-2.61-1.05-1.05-1.74-2.44-2.27-3.83-.52-1.57-.7-3.31-.7-4.88v-19.52h5.75v18.82c0,1.22.17,2.44.52,3.66.35.87.7,1.74,1.39,2.44.52.7,1.22,1.05,2.09,1.39s1.74.52,2.61.52,1.92-.17,2.61-.52c.87-.35,1.57-.7,2.09-1.39.7-.7,1.05-1.57,1.39-2.44.35-1.22.52-2.44.52-3.66v-18.82h5.75v19.35c0,1.74-.17,3.31-.7,4.88-.52,1.39-1.22,2.79-2.27,3.83-1.05,1.22-2.44,2.09-3.83,2.61-2.09.87-3.83,1.22-5.75,1.05Z"/>
    <path class="cls-6" d="M612.76,170.69c1.39-.35,2.79-.7,4.18-.87,1.92-.35,3.66-.35,5.58-.35,1.57,0,3.31.17,4.88.87,1.22.52,2.27,1.22,3.14,2.27s1.39,2.27,1.57,3.49c.35,1.39.52,2.96.52,4.36v13.25h-5.4v-12.37c0-1.05,0-2.09-.17-3.14-.17-.7-.35-1.57-.87-2.09-.35-.52-.87-1.05-1.57-1.22-.7-.35-1.57-.35-2.44-.35-.7,0-1.39,0-2.09.17l-1.74.17v19h-5.4v-23.18h-.17Z"/>
    <path class="cls-6" d="M645.17,163.2c0,.87-.35,1.74-1.05,2.44-.7.52-1.39.87-2.27.87s-1.74-.35-2.44-.87c-.7-.7-1.05-1.57-1.05-2.44s.35-1.92,1.05-2.44c.7-.52,1.57-.87,2.44-.87s1.74.35,2.27.87c.7.52,1.05,1.39,1.05,2.44ZM644.65,193.52h-5.4v-23.53h5.4v23.53Z"/>
    <path class="cls-6" d="M672.71,181.67c0,1.74-.17,3.49-.87,5.05-.52,1.39-1.22,2.79-2.27,3.83-1.05,1.05-2.27,1.92-3.66,2.44-1.39.52-2.96.87-4.53.87s-3.14-.35-4.53-.87c-1.39-.52-2.44-1.39-3.49-2.61-1.05-1.05-1.74-2.44-2.27-3.83-1.05-3.31-1.05-6.8,0-10.11.52-1.39,1.22-2.79,2.27-3.83,1.05-1.05,2.27-1.92,3.49-2.44,1.39-.52,2.96-.87,4.53-.87s3.14.35,4.53.87c1.39.52,2.61,1.39,3.49,2.44,1.05,1.22,1.74,2.44,2.27,3.83.7,1.74,1.05,3.49,1.05,5.23ZM667.13,181.67c.17-1.92-.35-3.83-1.57-5.58-1.92-2.27-5.23-2.79-7.49-.87-.35.17-.7.52-.87.87-1.05,1.57-1.57,3.66-1.57,5.58-.17,1.92.35,4.01,1.57,5.58,1.74,2.27,5.05,2.79,7.32,1.05.35-.35.7-.7,1.05-1.05,1.22-1.57,1.74-3.66,1.57-5.58Z"/>
    <path class="cls-6" d="M678.29,170.69c1.39-.35,2.79-.7,4.18-.87,1.92-.35,3.66-.35,5.58-.35,1.57,0,3.31.17,4.88.87,1.22.52,2.27,1.22,3.14,2.27s1.39,2.27,1.57,3.49c.35,1.39.52,2.96.52,4.36v13.25h-5.4v-12.37c0-1.05,0-2.09-.17-3.14-.17-.7-.35-1.57-.87-2.09-.35-.52-.87-1.05-1.57-1.22-.7-.35-1.57-.35-2.44-.35-.7,0-1.39,0-2.09.17l-1.74.17v19h-5.4l-.17-23.18Z"/>
    <g>
      <path class="cls-5" d="M950.25,138.1v-9.06h-9.76l-8.02,10.28c-3.14-.7-6.1-2.27-8.54-4.53l-4.01,1.57c3.14,2.61,6.97,4.53,10.98,5.05l-15.34,19.87h-.17l-24.92-31.72,28.23-35.9v34.86h8.37v-9.59c5.4,1.74,10.98,3.14,16.56,4.18,9.06,1.92,11.68,5.4,11.68,8.71,0,2.44-1.92,4.71-5.05,6.27M953.39,140.36c5.93-1.92,10.28-5.23,10.81-9.76,0-6.62-7.67-9.24-15.16-10.81-10.98-2.27-18.82-4.01-20.04-8.71-.17-.52-.35-1.05-.17-1.57.17-5.05,7.49-8.37,13.94-8.37s10.98.87,15.16,4.88l3.66-1.22c-4.71-4.18-11.15-5.4-18.82-5.4-5.4-.17-10.81.87-15.69,2.96v-13.42h-9.76l-24.75,32.07h-.17l-25.27-32.07h-9.41v39.39h4.53v-34.33l27.71,35.03h-8.54v39.39h3.83v-34.51l28.06,35.38h.17l28.23-35.9v34.86h8.37v-26.14h14.64v36.77h8.54v-36.6h17.6v-1.92h-37.47ZM946.94,96.97l13.42-8.02h-4.36l-12.37,5.58-12.55-5.58h-4.01l13.59,8.02h6.27Z"/>
      <polygon class="cls-7" points="786.95 189.69 788.87 189.69 794.1 201.02 799.5 189.69 801.24 189.69 801.24 202.06 800.02 202.06 800.02 190.73 794.79 202.06 793.4 202.06 788 190.73 788.17 202.06 786.95 202.06 786.95 189.69"/>
      <rect class="cls-7" x="805.95" y="189.69" width="1.22" height="12.37"/>
      <polygon class="cls-7" points="812.05 189.69 813.62 189.69 822.16 200.84 822.16 189.69 823.38 189.69 823.38 202.06 821.81 202.06 813.09 190.91 813.09 202.06 812.05 202.06 812.05 189.69"/>
      <rect class="cls-7" x="828.26" y="189.69" width="1.22" height="12.37"/>
      <path class="cls-7" d="M834.88,198.05h0c0,1.92,1.57,3.14,4.01,3.14s3.83-1.05,3.83-2.44-1.05-1.74-3.14-2.09l-2.61-.52c-1.92-.35-2.96-1.39-2.96-3.14,0-2.09,1.74-3.66,4.71-3.66s4.88,1.39,4.88,3.83h-1.22c-.17-1.74-1.39-2.61-3.66-2.61s-3.49.87-3.49,2.44,1.05,1.74,3.14,2.09l2.44.35c2.27.35,3.31,1.39,3.31,3.14,0,2.44-1.74,3.83-5.05,3.83s-5.23-1.57-5.23-4.18v-.17h1.05Z"/>
      <polygon class="cls-7" points="851.61 190.91 846.9 190.91 846.9 189.69 857.71 189.69 857.71 190.91 852.83 190.91 852.83 202.06 851.61 202.06 851.61 190.91"/>
      <path class="cls-7" d="M862.07,190.91v4.71h4.53c2.27,0,3.31-.7,3.31-2.44s-1.05-2.44-3.49-2.44l-4.36.17ZM860.85,189.69h5.93c2.96,0,4.53,1.05,4.53,3.31.17,1.39-.7,2.79-2.09,3.14,1.39.17,1.74.87,1.92,2.27,0,1.22.17,2.44.7,3.66h-1.39c-.35-1.22-.35-2.44-.35-3.66-.17-1.22-.87-1.74-2.44-1.74h-5.23v5.4h-1.22v-12.37h-.35Z"/>
      <polygon class="cls-7" points="879.67 196.83 874.44 189.69 876.01 189.69 880.37 195.79 884.72 189.69 886.29 189.69 881.06 196.83 881.06 202.06 879.67 202.06 879.67 196.83"/>
      <path class="cls-7" d="M908.25,195.96c0-2.96-2.44-5.23-5.4-5.05-2.96,0-5.23,2.44-5.05,5.4,0,2.79,2.44,5.05,5.23,5.05,2.61.17,5.05-1.74,5.23-4.53v-.87M903.02,202.41c-3.66,0-6.62-2.96-6.62-6.62s2.96-6.62,6.62-6.62,6.62,2.96,6.62,6.62h0c.35,3.31-2.09,6.27-5.4,6.62h-1.22"/>
      <polygon class="cls-7" points="913.48 189.69 922.72 189.69 922.72 190.91 914.7 190.91 914.7 195.09 921.85 195.09 921.85 196.31 914.7 196.31 914.7 202.06 913.48 202.06 913.48 189.69"/>
      <polygon class="cls-7" points="933.7 189.69 943.28 189.69 943.28 190.91 935.09 190.91 935.09 195.26 942.76 195.26 942.76 196.31 935.09 196.31 935.09 201.02 943.28 201.02 943.28 202.06 933.7 202.06 933.7 189.69"/>
      <path class="cls-7" d="M948.51,190.73v10.11h3.31c1.39.17,2.96-.17,4.18-.7,1.22-1.05,1.92-2.61,1.74-4.36.17-1.57-.52-3.31-1.74-4.18-1.39-.7-2.79-.87-4.36-.87h-3.14ZM956.88,190.73c1.39,1.22,2.27,3.14,1.92,5.05.17,1.92-.52,3.83-1.92,5.05-1.57.87-3.31,1.39-5.05,1.05h-4.53v-12.2h4.53c1.74-.17,3.49.17,5.05,1.05"/>
      <path class="cls-7" d="M964.2,189.69v7.67c0,2.61,1.22,3.83,4.18,3.83s4.18-1.22,4.18-3.83v-7.67h1.22v8.02c0,3.14-1.92,4.88-5.4,4.88s-5.4-1.74-5.4-4.88v-8.02h1.22Z"/>
      <path class="cls-7" d="M984.41,190.56c-2.61-.17-5.05,1.74-5.23,4.53v.87c-.35,2.61,1.74,5.05,4.36,5.23h.7c2.44.17,4.53-1.39,4.88-3.83h1.39c-.7,3.49-4.18,5.58-7.49,4.71-2.96-.7-5.05-3.31-4.88-6.27-.35-3.31,2.09-6.27,5.4-6.62h1.05c3.31,0,5.4,1.74,5.75,4.36h-1.22c-.7-1.74-2.61-3.14-4.71-2.96"/>
      <path class="cls-7" d="M1002.02,197.01l-2.79-6.45-2.79,6.45h5.58ZM998.53,189.69h1.39l5.58,12.37h-1.22l-1.74-3.83h-6.8l-1.74,3.83h-1.22l5.75-12.37Z"/>
      <polygon class="cls-7" points="1010.9 190.91 1006.2 190.91 1006.2 189.69 1017 189.69 1017 190.91 1012.12 190.91 1012.12 202.06 1010.9 202.06 1010.9 190.91"/>
      <rect class="cls-7" x="1020.32" y="189.69" width="1.22" height="12.37"/>
      <path class="cls-7" d="M1037.57,195.96c0-2.96-2.44-5.23-5.4-5.05-2.96,0-5.23,2.44-5.05,5.4,0,2.79,2.44,5.05,5.23,5.05,2.61.17,5.05-1.74,5.23-4.53v-.87M1032.34,202.41c-3.66,0-6.62-2.96-6.62-6.62s2.96-6.62,6.62-6.62,6.62,2.96,6.62,6.62h0c.35,3.31-2.09,6.27-5.4,6.62h-1.22"/>
      <polygon class="cls-7" points="1042.8 189.69 1044.37 189.69 1053.08 200.84 1053.08 189.69 1054.3 189.69 1054.3 202.06 1052.56 202.06 1044.02 190.91 1044.02 202.06 1042.8 202.06 1042.8 189.69"/>
      <path class="cls-7" d="M1059.53,200.67h1.39v2.09c0,1.22-.35,1.74-1.39,2.09v-.7c.35-.17.7-.7.52-1.22v-.7h-.52v-1.57Z"/>
      <polygon class="cls-7" points="840.28 214.78 835.92 209.03 837.14 209.03 840.8 214.09 844.46 209.03 845.86 209.03 841.33 214.78 841.33 219.32 840.28 219.32 840.28 214.78"/>
      <path class="cls-7" d="M857.01,214.09c0-2.44-2.09-4.36-4.36-4.36s-4.36,2.09-4.36,4.36c0,2.44,1.92,4.36,4.36,4.36,2.27.17,4.18-1.39,4.36-3.66.17-.17.17-.52,0-.7M852.66,219.49c-2.96,0-5.4-2.44-5.4-5.4s2.44-5.4,5.4-5.4,5.4,2.44,5.4,5.4h0c.17,2.79-1.74,5.23-4.53,5.4h-.87"/>
      <path class="cls-7" d="M862.24,209.03v6.27c0,2.27,1.05,3.31,3.49,3.31s3.49-1.05,3.49-3.31v-6.27h1.05v6.62c0,2.61-1.57,4.01-4.53,4.01s-4.53-1.39-4.53-4.01v-6.62h1.05Z"/>
      <polygon class="cls-7" points="876.53 209.9 872.7 209.9 872.7 209.03 881.59 209.03 881.59 209.9 877.58 209.9 877.58 219.32 876.53 219.32 876.53 209.9"/>
      <polygon class="cls-7" points="884.03 209.03 885.07 209.03 885.07 213.22 891.69 213.22 891.69 209.03 892.74 209.03 892.74 219.32 891.69 219.32 891.69 214.26 885.07 214.26 885.07 219.32 884.03 219.32 884.03 209.03"/>
      <path class="cls-7" d="M908.77,215.13l-2.44-5.23-2.44,5.23h4.88ZM905.81,209.03h1.22l4.71,10.28h-1.05l-1.39-3.14h-5.75l-1.39,3.14h-1.05l4.71-10.28Z"/>
      <polygon class="cls-7" points="914.18 209.03 915.4 209.03 922.72 218.27 922.72 209.03 923.76 209.03 923.76 219.32 922.37 219.32 915.22 210.08 915.22 219.32 914.18 219.32 914.18 209.03"/>
      <path class="cls-7" d="M928.29,209.9v8.37h2.79c1.22.17,2.27-.17,3.31-.7,1.05-.87,1.57-2.27,1.39-3.66.17-1.39-.35-2.61-1.39-3.49-1.05-.52-2.44-.7-3.66-.7l-2.44.17ZM935.27,209.9c2.27,2.44,2.27,6.1,0,8.37-1.22.7-2.79,1.05-4.18.87h-3.83v-10.28h3.83c1.39,0,2.96.35,4.18,1.05"/>
      <path class="cls-7" d="M946.42,215.83h0c0,1.57,1.22,2.61,3.31,2.61s3.14-.87,3.14-2.09-.87-1.39-2.61-1.74l-2.27-.35c-1.57-.35-2.44-1.22-2.44-2.61,0-1.74,1.39-2.96,3.83-2.96s4.01,1.22,4.01,3.14h-1.05c-.17-1.39-1.22-2.27-2.96-2.27s-2.96.87-2.96,1.92.87,1.39,2.61,1.74l1.92.35c1.92.35,2.79,1.22,2.79,2.61,0,1.92-1.57,3.14-4.18,3.14s-4.36-1.39-4.36-3.49h0s1.22,0,1.22,0Z"/>
      <path class="cls-7" d="M961.23,214.09c1.92,0,2.96-.35,2.96-2.09s-.87-2.09-2.96-2.09h-2.96v4.18h2.96ZM957.23,209.03h4.18c2.61,0,3.83,1.05,3.83,3.14s-1.22,3.14-3.83,3.14h-3.14v4.01h-1.05v-10.28Z"/>
      <path class="cls-7" d="M977.44,214.09c0-2.44-2.09-4.36-4.36-4.36s-4.36,2.09-4.36,4.36c0,2.44,1.92,4.36,4.36,4.36,2.27.17,4.18-1.39,4.36-3.66v-.7M973.08,219.49c-2.96,0-5.4-2.44-5.4-5.4s2.44-5.4,5.4-5.4,5.4,2.44,5.4,5.4h0c.17,2.79-1.74,5.23-4.53,5.4h-.87"/>
      <path class="cls-7" d="M982.5,209.9v4.01h3.83c1.92,0,2.79-.52,2.79-1.92s-.87-1.92-2.96-1.92h-3.66v-.17ZM981.45,209.03h4.88c2.44,0,3.66.87,3.66,2.79.17,1.22-.52,2.27-1.74,2.61,1.22.17,1.39.7,1.57,1.92,0,1.05.17,2.09.52,2.96h-1.22c-.17-1.05-.35-1.92-.35-2.96-.17-1.05-.7-1.39-2.09-1.39h-4.36v4.36h-1.05l.17-10.28Z"/>
      <polygon class="cls-7" points="996.26 209.9 992.26 209.9 992.26 209.03 1001.32 209.03 1001.32 209.9 997.31 209.9 997.31 219.32 996.26 219.32 996.26 209.9"/>
      <path class="cls-7" d="M1004.28,215.83h0c0,1.57,1.22,2.61,3.31,2.61s3.14-.87,3.14-2.09-.87-1.39-2.61-1.74l-2.27-.35c-1.57-.35-2.44-1.22-2.44-2.61,0-1.74,1.39-2.96,4.01-2.96s4.01,1.22,4.01,3.14h-1.05c-.17-1.39-1.22-2.27-2.96-2.27s-2.96.87-2.96,1.92.87,1.39,2.61,1.74l1.92.35c1.92.35,2.61,1.22,2.61,2.61,0,1.92-1.57,3.14-4.18,3.14s-4.36-1.39-4.36-3.49h0s1.22,0,1.22,0Z"/>
      <polygon class="cls-7" points="786.95 189.69 788.87 189.69 794.1 201.02 799.5 189.69 801.24 189.69 801.24 202.06 800.02 202.06 800.02 190.73 794.79 202.06 793.4 202.06 788 190.73 788.17 202.06 786.95 202.06 786.95 189.69"/>
      <rect class="cls-7" x="805.95" y="189.69" width="1.22" height="12.37"/>
      <polygon class="cls-7" points="812.05 189.69 813.62 189.69 822.16 200.84 822.16 189.69 823.38 189.69 823.38 202.06 821.81 202.06 813.09 190.91 813.09 202.06 812.05 202.06 812.05 189.69"/>
      <rect class="cls-7" x="828.26" y="189.69" width="1.22" height="12.37"/>
      <path class="cls-7" d="M834.88,198.05h0c0,1.92,1.57,3.14,4.01,3.14s3.83-1.05,3.83-2.44-1.05-1.74-3.14-2.09l-2.61-.52c-1.92-.35-2.96-1.39-2.96-3.14,0-2.09,1.74-3.66,4.71-3.66s4.88,1.39,4.88,3.83h-1.22c-.17-1.74-1.39-2.61-3.66-2.61s-3.49.87-3.49,2.44,1.05,1.74,3.14,2.09l2.44.35c2.27.35,3.31,1.39,3.31,3.14,0,2.44-1.74,3.83-5.05,3.83s-5.23-1.57-5.23-4.18v-.17h1.05Z"/>
      <polygon class="cls-7" points="851.61 190.91 846.9 190.91 846.9 189.69 857.71 189.69 857.71 190.91 852.83 190.91 852.83 202.06 851.61 202.06 851.61 190.91"/>
      <path class="cls-7" d="M862.07,190.91v4.71h4.53c2.27,0,3.31-.7,3.31-2.44s-1.05-2.44-3.49-2.44l-4.36.17ZM860.85,189.69h5.93c2.96,0,4.53,1.05,4.53,3.31.17,1.39-.7,2.79-2.09,3.14,1.39.17,1.74.87,1.92,2.27,0,1.22.17,2.44.7,3.66h-1.39c-.35-1.22-.35-2.44-.35-3.66-.17-1.22-.87-1.74-2.44-1.74h-5.23v5.4h-1.22v-12.37h-.35Z"/>
      <polygon class="cls-7" points="879.67 196.83 874.44 189.69 876.01 189.69 880.37 195.79 884.72 189.69 886.29 189.69 881.06 196.83 881.06 202.06 879.67 202.06 879.67 196.83"/>
      <path class="cls-7" d="M908.25,195.96c0-2.96-2.44-5.23-5.4-5.05-2.96,0-5.23,2.44-5.05,5.4,0,2.79,2.44,5.05,5.23,5.05,2.61.17,5.05-1.74,5.23-4.53v-.87M903.02,202.41c-3.66,0-6.62-2.96-6.62-6.62s2.96-6.62,6.62-6.62,6.62,2.96,6.62,6.62h0c.35,3.31-2.09,6.27-5.4,6.62h-1.22"/>
      <polygon class="cls-7" points="913.48 189.69 922.72 189.69 922.72 190.91 914.7 190.91 914.7 195.09 921.85 195.09 921.85 196.31 914.7 196.31 914.7 202.06 913.48 202.06 913.48 189.69"/>
      <polygon class="cls-7" points="933.7 189.69 943.28 189.69 943.28 190.91 935.09 190.91 935.09 195.26 942.76 195.26 942.76 196.31 935.09 196.31 935.09 201.02 943.28 201.02 943.28 202.06 933.7 202.06 933.7 189.69"/>
      <path class="cls-7" d="M948.51,190.73v10.11h3.31c1.39.17,2.96-.17,4.18-.7,1.22-1.05,1.92-2.61,1.74-4.36.17-1.57-.52-3.31-1.74-4.18-1.39-.7-2.79-.87-4.36-.87h-3.14ZM956.88,190.73c1.39,1.22,2.27,3.14,1.92,5.05.17,1.92-.52,3.83-1.92,5.05-1.57.87-3.31,1.39-5.05,1.05h-4.53v-12.2h4.53c1.74-.17,3.49.17,5.05,1.05"/>
      <path class="cls-7" d="M964.2,189.69v7.67c0,2.61,1.22,3.83,4.18,3.83s4.18-1.22,4.18-3.83v-7.67h1.22v8.02c0,3.14-1.92,4.88-5.4,4.88s-5.4-1.74-5.4-4.88v-8.02h1.22Z"/>
      <path class="cls-7" d="M984.41,190.56c-2.61-.17-5.05,1.74-5.23,4.53v.87c-.35,2.61,1.74,5.05,4.36,5.23h.7c2.44.17,4.53-1.39,4.88-3.83h1.39c-.7,3.49-4.18,5.58-7.49,4.71-2.96-.7-5.05-3.31-4.88-6.27-.35-3.31,2.09-6.27,5.4-6.62h1.05c3.31,0,5.4,1.74,5.75,4.36h-1.22c-.7-1.74-2.61-3.14-4.71-2.96"/>
      <path class="cls-7" d="M1002.02,197.01l-2.79-6.45-2.79,6.45h5.58ZM998.53,189.69h1.39l5.58,12.37h-1.22l-1.74-3.83h-6.8l-1.74,3.83h-1.22l5.75-12.37Z"/>
      <polygon class="cls-7" points="1010.9 190.91 1006.2 190.91 1006.2 189.69 1017 189.69 1017 190.91 1012.12 190.91 1012.12 202.06 1010.9 202.06 1010.9 190.91"/>
      <rect class="cls-7" x="1020.32" y="189.69" width="1.22" height="12.37"/>
      <path class="cls-7" d="M1037.57,195.96c0-2.96-2.44-5.23-5.4-5.05-2.96,0-5.23,2.44-5.05,5.4,0,2.79,2.44,5.05,5.23,5.05,2.61.17,5.05-1.74,5.23-4.53v-.87M1032.34,202.41c-3.66,0-6.62-2.96-6.62-6.62s2.96-6.62,6.62-6.62,6.62,2.96,6.62,6.62h0c.35,3.31-2.09,6.27-5.4,6.62h-1.22"/>
      <polygon class="cls-7" points="1042.8 189.69 1044.37 189.69 1053.08 200.84 1053.08 189.69 1054.3 189.69 1054.3 202.06 1052.56 202.06 1044.02 190.91 1044.02 202.06 1042.8 202.06 1042.8 189.69"/>
      <path class="cls-7" d="M1059.53,200.67h1.39v2.09c0,1.22-.35,1.74-1.39,2.09v-.7c.35-.17.7-.7.52-1.22v-.7h-.52v-1.57Z"/>
      <polygon class="cls-7" points="840.28 214.78 835.92 209.03 837.14 209.03 840.8 214.09 844.46 209.03 845.86 209.03 841.33 214.78 841.33 219.32 840.28 219.32 840.28 214.78"/>
      <path class="cls-7" d="M857.01,214.09c0-2.44-2.09-4.36-4.36-4.36s-4.36,2.09-4.36,4.36c0,2.44,1.92,4.36,4.36,4.36,2.27.17,4.18-1.39,4.36-3.66.17-.17.17-.52,0-.7M852.66,219.49c-2.96,0-5.4-2.44-5.4-5.4s2.44-5.4,5.4-5.4,5.4,2.44,5.4,5.4h0c.17,2.79-1.74,5.23-4.53,5.4h-.87"/>
      <path class="cls-7" d="M862.24,209.03v6.27c0,2.27,1.05,3.31,3.49,3.31s3.49-1.05,3.49-3.31v-6.27h1.05v6.62c0,2.61-1.57,4.01-4.53,4.01s-4.53-1.39-4.53-4.01v-6.62h1.05Z"/>
      <polygon class="cls-7" points="876.53 209.9 872.7 209.9 872.7 209.03 881.59 209.03 881.59 209.9 877.58 209.9 877.58 219.32 876.53 219.32 876.53 209.9"/>
      <polygon class="cls-7" points="884.03 209.03 885.07 209.03 885.07 213.22 891.69 213.22 891.69 209.03 892.74 209.03 892.74 219.32 891.69 219.32 891.69 214.26 885.07 214.26 885.07 219.32 884.03 219.32 884.03 209.03"/>
      <path class="cls-7" d="M908.77,215.13l-2.44-5.23-2.44,5.23h4.88ZM905.81,209.03h1.22l4.71,10.28h-1.05l-1.39-3.14h-5.75l-1.39,3.14h-1.05l4.71-10.28Z"/>
      <polygon class="cls-7" points="914.18 209.03 915.4 209.03 922.72 218.27 922.72 209.03 923.76 209.03 923.76 219.32 922.37 219.32 915.22 210.08 915.22 219.32 914.18 219.32 914.18 209.03"/>
      <path class="cls-7" d="M928.29,209.9v8.37h2.79c1.22.17,2.27-.17,3.31-.7,1.05-.87,1.57-2.27,1.39-3.66.17-1.39-.35-2.61-1.39-3.49-1.05-.52-2.44-.7-3.66-.7l-2.44.17ZM935.27,209.9c2.27,2.44,2.27,6.1,0,8.37-1.22.7-2.79,1.05-4.18.87h-3.83v-10.28h3.83c1.39,0,2.96.35,4.18,1.05"/>
      <path class="cls-7" d="M946.42,215.83h0c0,1.57,1.22,2.61,3.31,2.61s3.14-.87,3.14-2.09-.87-1.39-2.61-1.74l-2.27-.35c-1.57-.35-2.44-1.22-2.44-2.61,0-1.74,1.39-2.96,3.83-2.96s4.01,1.22,4.01,3.14h-1.05c-.17-1.39-1.22-2.27-2.96-2.27s-2.96.87-2.96,1.92.87,1.39,2.61,1.74l1.92.35c1.92.35,2.79,1.22,2.79,2.61,0,1.92-1.57,3.14-4.18,3.14s-4.36-1.39-4.36-3.49h0s1.22,0,1.22,0Z"/>
      <path class="cls-7" d="M961.23,214.09c1.92,0,2.96-.35,2.96-2.09s-.87-2.09-2.96-2.09h-2.96v4.18h2.96ZM957.23,209.03h4.18c2.61,0,3.83,1.05,3.83,3.14s-1.22,3.14-3.83,3.14h-3.14v4.01h-1.05v-10.28Z"/>
      <path class="cls-7" d="M977.44,214.09c0-2.44-2.09-4.36-4.36-4.36s-4.36,2.09-4.36,4.36c0,2.44,1.92,4.36,4.36,4.36,2.27.17,4.18-1.39,4.36-3.66v-.7M973.08,219.49c-2.96,0-5.4-2.44-5.4-5.4s2.44-5.4,5.4-5.4,5.4,2.44,5.4,5.4h0c.17,2.79-1.74,5.23-4.53,5.4h-.87"/>
      <path class="cls-7" d="M982.5,209.9v4.01h3.83c1.92,0,2.79-.52,2.79-1.92s-.87-1.92-2.96-1.92h-3.66v-.17ZM981.45,209.03h4.88c2.44,0,3.66.87,3.66,2.79.17,1.22-.52,2.27-1.74,2.61,1.22.17,1.39.7,1.57,1.92,0,1.05.17,2.09.52,2.96h-1.22c-.17-1.05-.35-1.92-.35-2.96-.17-1.05-.7-1.39-2.09-1.39h-4.36v4.36h-1.05l.17-10.28Z"/>
      <polygon class="cls-7" points="996.26 209.9 992.26 209.9 992.26 209.03 1001.32 209.03 1001.32 209.9 997.31 209.9 997.31 219.32 996.26 219.32 996.26 209.9"/>
      <path class="cls-7" d="M1004.28,215.83h0c0,1.57,1.22,2.61,3.31,2.61s3.14-.87,3.14-2.09-.87-1.39-2.61-1.74l-2.27-.35c-1.57-.35-2.44-1.22-2.44-2.61,0-1.74,1.39-2.96,4.01-2.96s4.01,1.22,4.01,3.14h-1.05c-.17-1.39-1.22-2.27-2.96-2.27s-2.96.87-2.96,1.92.87,1.39,2.61,1.74l1.92.35c1.92.35,2.61,1.22,2.61,2.61,0,1.92-1.57,3.14-4.18,3.14s-4.36-1.39-4.36-3.49h0s1.22,0,1.22,0Z"/>
    </g>
    <rect class="cls-2" x="1.77" y="23.33" width="1084.13" height="264.15"/>
  </g>
</svg>